<svg width="225" height="57" viewBox="0 0 225 57" fill="none" xmlns="http://www.w3.org/2000/svg">
<g filter="url(#filter0_d_365_3124)">
<g filter="url(#filter1_b_365_3124)">
<rect x="4" width="217" height="48.845" rx="10" fill="black"/>
</g>
<path fill-rule="evenodd" clip-rule="evenodd" d="M34.1068 26.9194C34.6841 26.3337 35.6269 26.3268 36.2127 26.9041C36.2179 26.9092 36.223 26.9143 36.228 26.9194L39.6413 30.3827L43.0545 26.9194C43.6318 26.3337 44.5747 26.3268 45.1604 26.9041C45.1656 26.9092 45.1707 26.9143 45.1758 26.9194C45.764 27.5163 45.764 28.4749 45.1758 29.0718L41.7625 32.5351L45.1758 35.9984C45.764 36.5952 45.764 37.5539 45.1758 38.1507C44.5985 38.7365 43.6556 38.7434 43.0698 38.1661C43.0647 38.161 43.0596 38.1559 43.0545 38.1507L39.6413 34.6875L36.228 38.1507C35.6507 38.7365 34.7079 38.7434 34.1221 38.1661C34.117 38.161 34.1118 38.1559 34.1068 38.1507C33.5185 37.5539 33.5185 36.5952 34.1068 35.9984L37.52 32.5351L34.1068 29.0718C33.5185 28.4749 33.5185 27.5163 34.1068 26.9194Z" fill="white"/>
<path fill-rule="evenodd" clip-rule="evenodd" d="M44.7143 16.204C44.7143 17.6049 44.1464 18.8732 43.2284 19.7913C42.3103 20.7094 41.042 21.2772 39.6411 21.2772H34.5679V16.204C34.5679 14.8031 35.1358 13.5348 36.0538 12.6168C36.9719 11.6987 38.2402 11.1309 39.6411 11.1309C41.042 11.1309 42.3103 11.6987 43.2284 12.6168C44.1464 13.5348 44.7143 14.8031 44.7143 16.204Z" stroke="white" stroke-width="4.00685"/>
<path fill-rule="evenodd" clip-rule="evenodd" d="M28.4799 32.4382C28.4799 33.8391 27.9121 35.1074 26.9941 36.0254C26.076 36.9435 24.8077 37.5113 23.4068 37.5113H18.3336V32.4382C18.3336 31.0372 18.9014 29.769 19.8195 28.8509C20.7376 27.9328 22.0059 27.365 23.4068 27.365C24.8077 27.365 26.076 27.9328 26.9941 28.8509C27.9121 29.769 28.4799 31.0372 28.4799 32.4382Z" stroke="white" stroke-width="4.00685"/>
<path fill-rule="evenodd" clip-rule="evenodd" d="M23.4072 11.1309C24.8081 11.1309 26.0764 11.6987 26.9944 12.6168C27.9125 13.5348 28.4803 14.8031 28.4803 16.204V21.2772H23.4072C22.0062 21.2772 20.7379 20.7094 19.8199 19.7913C18.9018 18.8732 18.334 17.6049 18.334 16.204C18.334 14.8031 18.9018 13.5348 19.8199 12.6168C20.7379 11.6987 22.0062 11.1309 23.4072 11.1309Z" stroke="white" stroke-width="4.00685"/>
<path d="M63.528 12.636C64.44 12.636 65.228 12.808 65.892 13.152C66.564 13.488 67.076 13.972 67.428 14.604C67.788 15.236 67.968 15.98 67.968 16.836C67.968 17.692 67.788 18.436 67.428 19.068C67.076 19.692 66.564 20.172 65.892 20.508C65.228 20.836 64.44 21 63.528 21H60.924V12.636H63.528ZM63.528 20.1C64.608 20.1 65.432 19.816 66 19.248C66.568 18.672 66.852 17.868 66.852 16.836C66.852 15.796 66.564 14.984 65.988 14.4C65.42 13.816 64.6 13.524 63.528 13.524H62.016V20.1H63.528ZM75.4084 17.46C75.4084 17.668 75.3964 17.888 75.3724 18.12H70.1164C70.1564 18.768 70.3764 19.276 70.7764 19.644C71.1844 20.004 71.6764 20.184 72.2524 20.184C72.7244 20.184 73.1164 20.076 73.4284 19.86C73.7484 19.636 73.9724 19.34 74.1004 18.972H75.2764C75.1004 19.604 74.7484 20.12 74.2204 20.52C73.6924 20.912 73.0364 21.108 72.2524 21.108C71.6284 21.108 71.0684 20.968 70.5724 20.688C70.0844 20.408 69.7004 20.012 69.4204 19.5C69.1404 18.98 69.0004 18.38 69.0004 17.7C69.0004 17.02 69.1364 16.424 69.4084 15.912C69.6804 15.4 70.0604 15.008 70.5484 14.736C71.0444 14.456 71.6124 14.316 72.2524 14.316C72.8764 14.316 73.4284 14.452 73.9084 14.724C74.3884 14.996 74.7564 15.372 75.0124 15.852C75.2764 16.324 75.4084 16.86 75.4084 17.46ZM74.2804 17.232C74.2804 16.816 74.1884 16.46 74.0044 16.164C73.8204 15.86 73.5684 15.632 73.2484 15.48C72.9364 15.32 72.5884 15.24 72.2044 15.24C71.6524 15.24 71.1804 15.416 70.7884 15.768C70.4044 16.12 70.1844 16.608 70.1284 17.232H74.2804ZM79.2978 19.992L81.3378 14.424H82.5018L79.9218 21H78.6498L76.0698 14.424H77.2458L79.2978 19.992ZM89.5763 17.46C89.5763 17.668 89.5643 17.888 89.5403 18.12H84.2843C84.3243 18.768 84.5443 19.276 84.9443 19.644C85.3523 20.004 85.8443 20.184 86.4203 20.184C86.8923 20.184 87.2843 20.076 87.5963 19.86C87.9163 19.636 88.1403 19.34 88.2683 18.972H89.4443C89.2683 19.604 88.9163 20.12 88.3883 20.52C87.8603 20.912 87.2043 21.108 86.4203 21.108C85.7963 21.108 85.2363 20.968 84.7403 20.688C84.2523 20.408 83.8683 20.012 83.5883 19.5C83.3083 18.98 83.1683 18.38 83.1683 17.7C83.1683 17.02 83.3043 16.424 83.5763 15.912C83.8483 15.4 84.2283 15.008 84.7163 14.736C85.2123 14.456 85.7803 14.316 86.4203 14.316C87.0443 14.316 87.5963 14.452 88.0763 14.724C88.5563 14.996 88.9243 15.372 89.1803 15.852C89.4443 16.324 89.5763 16.86 89.5763 17.46ZM88.4483 17.232C88.4483 16.816 88.3563 16.46 88.1723 16.164C87.9883 15.86 87.7363 15.632 87.4163 15.48C87.1043 15.32 86.7563 15.24 86.3723 15.24C85.8203 15.24 85.3483 15.416 84.9563 15.768C84.5723 16.12 84.3523 16.608 84.2963 17.232H88.4483ZM92.1098 12.12V21H91.0178V12.12H92.1098ZM96.8389 21.108C96.2229 21.108 95.6629 20.968 95.1589 20.688C94.6629 20.408 94.2709 20.012 93.9829 19.5C93.7029 18.98 93.5629 18.38 93.5629 17.7C93.5629 17.028 93.7069 16.436 93.9949 15.924C94.2909 15.404 94.6909 15.008 95.1949 14.736C95.6989 14.456 96.2629 14.316 96.8869 14.316C97.5109 14.316 98.0749 14.456 98.5789 14.736C99.0829 15.008 99.4789 15.4 99.7669 15.912C100.063 16.424 100.211 17.02 100.211 17.7C100.211 18.38 100.059 18.98 99.7549 19.5C99.4589 20.012 99.0549 20.408 98.5429 20.688C98.0309 20.968 97.4629 21.108 96.8389 21.108ZM96.8389 20.148C97.2309 20.148 97.5989 20.056 97.9429 19.872C98.2869 19.688 98.5629 19.412 98.7709 19.044C98.9869 18.676 99.0949 18.228 99.0949 17.7C99.0949 17.172 98.9909 16.724 98.7829 16.356C98.5749 15.988 98.3029 15.716 97.9669 15.54C97.6309 15.356 97.2669 15.264 96.8749 15.264C96.4749 15.264 96.1069 15.356 95.7709 15.54C95.4429 15.716 95.1789 15.988 94.9789 16.356C94.7789 16.724 94.6789 17.172 94.6789 17.7C94.6789 18.236 94.7749 18.688 94.9669 19.056C95.1669 19.424 95.4309 19.7 95.7589 19.884C96.0869 20.06 96.4469 20.148 96.8389 20.148ZM102.739 15.636C102.955 15.26 103.275 14.948 103.699 14.7C104.131 14.444 104.631 14.316 105.199 14.316C105.783 14.316 106.311 14.456 106.783 14.736C107.263 15.016 107.639 15.412 107.911 15.924C108.183 16.428 108.319 17.016 108.319 17.688C108.319 18.352 108.183 18.944 107.911 19.464C107.639 19.984 107.263 20.388 106.783 20.676C106.311 20.964 105.783 21.108 105.199 21.108C104.639 21.108 104.143 20.984 103.711 20.736C103.287 20.48 102.963 20.164 102.739 19.788V24.12H101.647V14.424H102.739V15.636ZM107.203 17.688C107.203 17.192 107.103 16.76 106.903 16.392C106.703 16.024 106.431 15.744 106.087 15.552C105.751 15.36 105.379 15.264 104.971 15.264C104.571 15.264 104.199 15.364 103.855 15.564C103.519 15.756 103.247 16.04 103.039 16.416C102.839 16.784 102.739 17.212 102.739 17.7C102.739 18.196 102.839 18.632 103.039 19.008C103.247 19.376 103.519 19.66 103.855 19.86C104.199 20.052 104.571 20.148 104.971 20.148C105.379 20.148 105.751 20.052 106.087 19.86C106.431 19.66 106.703 19.376 106.903 19.008C107.103 18.632 107.203 18.192 107.203 17.688ZM115.756 17.46C115.756 17.668 115.744 17.888 115.72 18.12H110.464C110.504 18.768 110.724 19.276 111.124 19.644C111.532 20.004 112.024 20.184 112.6 20.184C113.072 20.184 113.464 20.076 113.776 19.86C114.096 19.636 114.32 19.34 114.448 18.972H115.624C115.448 19.604 115.096 20.12 114.568 20.52C114.04 20.912 113.384 21.108 112.6 21.108C111.976 21.108 111.416 20.968 110.92 20.688C110.432 20.408 110.048 20.012 109.768 19.5C109.488 18.98 109.348 18.38 109.348 17.7C109.348 17.02 109.484 16.424 109.756 15.912C110.028 15.4 110.408 15.008 110.896 14.736C111.392 14.456 111.96 14.316 112.6 14.316C113.224 14.316 113.776 14.452 114.256 14.724C114.736 14.996 115.104 15.372 115.36 15.852C115.624 16.324 115.756 16.86 115.756 17.46ZM114.628 17.232C114.628 16.816 114.536 16.46 114.352 16.164C114.168 15.86 113.916 15.632 113.596 15.48C113.284 15.32 112.936 15.24 112.552 15.24C112 15.24 111.528 15.416 111.136 15.768C110.752 16.12 110.532 16.608 110.476 17.232H114.628ZM116.789 17.688C116.789 17.016 116.925 16.428 117.197 15.924C117.469 15.412 117.841 15.016 118.313 14.736C118.793 14.456 119.329 14.316 119.921 14.316C120.433 14.316 120.909 14.436 121.349 14.676C121.789 14.908 122.125 15.216 122.357 15.6V12.12H123.461V21H122.357V19.764C122.141 20.156 121.821 20.48 121.397 20.736C120.973 20.984 120.477 21.108 119.909 21.108C119.325 21.108 118.793 20.964 118.313 20.676C117.841 20.388 117.469 19.984 117.197 19.464C116.925 18.944 116.789 18.352 116.789 17.688ZM122.357 17.7C122.357 17.204 122.257 16.772 122.057 16.404C121.857 16.036 121.585 15.756 121.241 15.564C120.905 15.364 120.533 15.264 120.125 15.264C119.717 15.264 119.345 15.36 119.009 15.552C118.673 15.744 118.405 16.024 118.205 16.392C118.005 16.76 117.905 17.192 117.905 17.688C117.905 18.192 118.005 18.632 118.205 19.008C118.405 19.376 118.673 19.66 119.009 19.86C119.345 20.052 119.717 20.148 120.125 20.148C120.533 20.148 120.905 20.052 121.241 19.86C121.585 19.66 121.857 19.376 122.057 19.008C122.257 18.632 122.357 18.196 122.357 17.7ZM128.098 17.688C128.098 17.016 128.234 16.428 128.506 15.924C128.778 15.412 129.15 15.016 129.622 14.736C130.102 14.456 130.634 14.316 131.218 14.316C131.794 14.316 132.294 14.44 132.718 14.688C133.142 14.936 133.458 15.248 133.666 15.624V14.424H134.77V21H133.666V19.776C133.45 20.16 133.126 20.48 132.694 20.736C132.27 20.984 131.774 21.108 131.206 21.108C130.622 21.108 130.094 20.964 129.622 20.676C129.15 20.388 128.778 19.984 128.506 19.464C128.234 18.944 128.098 18.352 128.098 17.688ZM133.666 17.7C133.666 17.204 133.566 16.772 133.366 16.404C133.166 16.036 132.894 15.756 132.55 15.564C132.214 15.364 131.842 15.264 131.434 15.264C131.026 15.264 130.654 15.36 130.318 15.552C129.982 15.744 129.714 16.024 129.514 16.392C129.314 16.76 129.214 17.192 129.214 17.688C129.214 18.192 129.314 18.632 129.514 19.008C129.714 19.376 129.982 19.66 130.318 19.86C130.654 20.052 131.026 20.148 131.434 20.148C131.842 20.148 132.214 20.052 132.55 19.86C132.894 19.66 133.166 19.376 133.366 19.008C133.566 18.632 133.666 18.196 133.666 17.7ZM139.819 14.304C140.619 14.304 141.267 14.548 141.763 15.036C142.259 15.516 142.507 16.212 142.507 17.124V21H141.427V17.28C141.427 16.624 141.263 16.124 140.935 15.78C140.607 15.428 140.159 15.252 139.591 15.252C139.015 15.252 138.555 15.432 138.211 15.792C137.875 16.152 137.707 16.676 137.707 17.364V21H136.615V14.424H137.707V15.36C137.923 15.024 138.215 14.764 138.583 14.58C138.959 14.396 139.371 14.304 139.819 14.304ZM143.883 17.688C143.883 17.016 144.019 16.428 144.291 15.924C144.563 15.412 144.935 15.016 145.407 14.736C145.887 14.456 146.423 14.316 147.015 14.316C147.527 14.316 148.003 14.436 148.443 14.676C148.883 14.908 149.219 15.216 149.451 15.6V12.12H150.555V21H149.451V19.764C149.235 20.156 148.915 20.48 148.491 20.736C148.067 20.984 147.571 21.108 147.003 21.108C146.419 21.108 145.887 20.964 145.407 20.676C144.935 20.388 144.563 19.984 144.291 19.464C144.019 18.944 143.883 18.352 143.883 17.688ZM149.451 17.7C149.451 17.204 149.351 16.772 149.151 16.404C148.951 16.036 148.679 15.756 148.335 15.564C147.999 15.364 147.627 15.264 147.219 15.264C146.811 15.264 146.439 15.36 146.103 15.552C145.767 15.744 145.499 16.024 145.299 16.392C145.099 16.76 144.999 17.192 144.999 17.688C144.999 18.192 145.099 18.632 145.299 19.008C145.499 19.376 145.767 19.66 146.103 19.86C146.439 20.052 146.811 20.148 147.219 20.148C147.627 20.148 147.999 20.052 148.335 19.86C148.679 19.66 148.951 19.376 149.151 19.008C149.351 18.632 149.451 18.196 149.451 17.7ZM155.192 17.688C155.192 17.016 155.328 16.428 155.6 15.924C155.872 15.412 156.244 15.016 156.716 14.736C157.196 14.456 157.732 14.316 158.324 14.316C158.836 14.316 159.312 14.436 159.752 14.676C160.192 14.908 160.528 15.216 160.76 15.6V12.12H161.864V21H160.76V19.764C160.544 20.156 160.224 20.48 159.8 20.736C159.376 20.984 158.88 21.108 158.312 21.108C157.728 21.108 157.196 20.964 156.716 20.676C156.244 20.388 155.872 19.984 155.6 19.464C155.328 18.944 155.192 18.352 155.192 17.688ZM160.76 17.7C160.76 17.204 160.66 16.772 160.46 16.404C160.26 16.036 159.988 15.756 159.644 15.564C159.308 15.364 158.936 15.264 158.528 15.264C158.12 15.264 157.748 15.36 157.412 15.552C157.076 15.744 156.808 16.024 156.608 16.392C156.408 16.76 156.308 17.192 156.308 17.688C156.308 18.192 156.408 18.632 156.608 19.008C156.808 19.376 157.076 19.66 157.412 19.86C157.748 20.052 158.12 20.148 158.528 20.148C158.936 20.148 159.308 20.052 159.644 19.86C159.988 19.66 160.26 19.376 160.46 19.008C160.66 18.632 160.76 18.196 160.76 17.7ZM169.709 17.46C169.709 17.668 169.697 17.888 169.673 18.12H164.417C164.457 18.768 164.677 19.276 165.077 19.644C165.485 20.004 165.977 20.184 166.553 20.184C167.025 20.184 167.417 20.076 167.729 19.86C168.049 19.636 168.273 19.34 168.401 18.972H169.577C169.401 19.604 169.049 20.12 168.521 20.52C167.993 20.912 167.337 21.108 166.553 21.108C165.929 21.108 165.369 20.968 164.873 20.688C164.385 20.408 164.001 20.012 163.721 19.5C163.441 18.98 163.301 18.38 163.301 17.7C163.301 17.02 163.437 16.424 163.709 15.912C163.981 15.4 164.361 15.008 164.849 14.736C165.345 14.456 165.913 14.316 166.553 14.316C167.177 14.316 167.729 14.452 168.209 14.724C168.689 14.996 169.057 15.372 169.313 15.852C169.577 16.324 169.709 16.86 169.709 17.46ZM168.581 17.232C168.581 16.816 168.489 16.46 168.305 16.164C168.121 15.86 167.869 15.632 167.549 15.48C167.237 15.32 166.889 15.24 166.505 15.24C165.953 15.24 165.481 15.416 165.089 15.768C164.705 16.12 164.485 16.608 164.429 17.232H168.581ZM173.479 21.108C172.975 21.108 172.523 21.024 172.123 20.856C171.723 20.68 171.407 20.44 171.175 20.136C170.943 19.824 170.815 19.468 170.791 19.068H171.919C171.951 19.396 172.103 19.664 172.375 19.872C172.655 20.08 173.019 20.184 173.467 20.184C173.883 20.184 174.211 20.092 174.451 19.908C174.691 19.724 174.811 19.492 174.811 19.212C174.811 18.924 174.683 18.712 174.427 18.576C174.171 18.432 173.775 18.292 173.239 18.156C172.751 18.028 172.351 17.9 172.039 17.772C171.735 17.636 171.471 17.44 171.247 17.184C171.031 16.92 170.923 16.576 170.923 16.152C170.923 15.816 171.023 15.508 171.223 15.228C171.423 14.948 171.707 14.728 172.075 14.568C172.443 14.4 172.863 14.316 173.335 14.316C174.063 14.316 174.651 14.5 175.099 14.868C175.547 15.236 175.787 15.74 175.819 16.38H174.727C174.703 16.036 174.563 15.76 174.307 15.552C174.059 15.344 173.723 15.24 173.299 15.24C172.907 15.24 172.595 15.324 172.363 15.492C172.131 15.66 172.015 15.88 172.015 16.152C172.015 16.368 172.083 16.548 172.219 16.692C172.363 16.828 172.539 16.94 172.747 17.028C172.963 17.108 173.259 17.2 173.635 17.304C174.107 17.432 174.491 17.56 174.787 17.688C175.083 17.808 175.335 17.992 175.543 18.24C175.759 18.488 175.871 18.812 175.879 19.212C175.879 19.572 175.779 19.896 175.579 20.184C175.379 20.472 175.095 20.7 174.727 20.868C174.367 21.028 173.951 21.108 173.479 21.108ZM177.984 13.356C177.776 13.356 177.6 13.284 177.456 13.14C177.312 12.996 177.24 12.82 177.24 12.612C177.24 12.404 177.312 12.228 177.456 12.084C177.6 11.94 177.776 11.868 177.984 11.868C178.184 11.868 178.352 11.94 178.488 12.084C178.632 12.228 178.704 12.404 178.704 12.612C178.704 12.82 178.632 12.996 178.488 13.14C178.352 13.284 178.184 13.356 177.984 13.356ZM178.512 14.424V21H177.42V14.424H178.512ZM183.085 14.316C183.653 14.316 184.149 14.44 184.573 14.688C185.005 14.936 185.325 15.248 185.533 15.624V14.424H186.637V21.144C186.637 21.744 186.509 22.276 186.253 22.74C185.997 23.212 185.629 23.58 185.149 23.844C184.677 24.108 184.125 24.24 183.493 24.24C182.629 24.24 181.909 24.036 181.333 23.628C180.757 23.22 180.417 22.664 180.313 21.96H181.393C181.513 22.36 181.761 22.68 182.137 22.92C182.513 23.168 182.965 23.292 183.493 23.292C184.093 23.292 184.581 23.104 184.957 22.728C185.341 22.352 185.533 21.824 185.533 21.144V19.764C185.317 20.148 184.997 20.468 184.573 20.724C184.149 20.98 183.653 21.108 183.085 21.108C182.501 21.108 181.969 20.964 181.489 20.676C181.017 20.388 180.645 19.984 180.373 19.464C180.101 18.944 179.965 18.352 179.965 17.688C179.965 17.016 180.101 16.428 180.373 15.924C180.645 15.412 181.017 15.016 181.489 14.736C181.969 14.456 182.501 14.316 183.085 14.316ZM185.533 17.7C185.533 17.204 185.433 16.772 185.233 16.404C185.033 16.036 184.761 15.756 184.417 15.564C184.081 15.364 183.709 15.264 183.301 15.264C182.893 15.264 182.521 15.36 182.185 15.552C181.849 15.744 181.581 16.024 181.381 16.392C181.181 16.76 181.081 17.192 181.081 17.688C181.081 18.192 181.181 18.632 181.381 19.008C181.581 19.376 181.849 19.66 182.185 19.86C182.521 20.052 182.893 20.148 183.301 20.148C183.709 20.148 184.081 20.052 184.417 19.86C184.761 19.66 185.033 19.376 185.233 19.008C185.433 18.632 185.533 18.196 185.533 17.7ZM191.687 14.304C192.487 14.304 193.135 14.548 193.631 15.036C194.127 15.516 194.375 16.212 194.375 17.124V21H193.295V17.28C193.295 16.624 193.131 16.124 192.803 15.78C192.475 15.428 192.027 15.252 191.459 15.252C190.883 15.252 190.423 15.432 190.079 15.792C189.743 16.152 189.575 16.676 189.575 17.364V21H188.483V14.424H189.575V15.36C189.791 15.024 190.083 14.764 190.451 14.58C190.827 14.396 191.239 14.304 191.687 14.304ZM202.158 17.46C202.158 17.668 202.146 17.888 202.122 18.12H196.866C196.906 18.768 197.126 19.276 197.526 19.644C197.934 20.004 198.426 20.184 199.002 20.184C199.474 20.184 199.866 20.076 200.178 19.86C200.498 19.636 200.722 19.34 200.85 18.972H202.026C201.85 19.604 201.498 20.12 200.97 20.52C200.442 20.912 199.786 21.108 199.002 21.108C198.378 21.108 197.818 20.968 197.322 20.688C196.834 20.408 196.45 20.012 196.17 19.5C195.89 18.98 195.75 18.38 195.75 17.7C195.75 17.02 195.886 16.424 196.158 15.912C196.43 15.4 196.81 15.008 197.298 14.736C197.794 14.456 198.362 14.316 199.002 14.316C199.626 14.316 200.178 14.452 200.658 14.724C201.138 14.996 201.506 15.372 201.762 15.852C202.026 16.324 202.158 16.86 202.158 17.46ZM201.03 17.232C201.03 16.816 200.938 16.46 200.754 16.164C200.57 15.86 200.318 15.632 199.998 15.48C199.686 15.32 199.338 15.24 198.954 15.24C198.402 15.24 197.93 15.416 197.538 15.768C197.154 16.12 196.934 16.608 196.878 17.232H201.03ZM203.192 17.688C203.192 17.016 203.328 16.428 203.6 15.924C203.872 15.412 204.244 15.016 204.716 14.736C205.196 14.456 205.732 14.316 206.324 14.316C206.836 14.316 207.312 14.436 207.752 14.676C208.192 14.908 208.528 15.216 208.76 15.6V12.12H209.864V21H208.76V19.764C208.544 20.156 208.224 20.48 207.8 20.736C207.376 20.984 206.88 21.108 206.312 21.108C205.728 21.108 205.196 20.964 204.716 20.676C204.244 20.388 203.872 19.984 203.6 19.464C203.328 18.944 203.192 18.352 203.192 17.688ZM208.76 17.7C208.76 17.204 208.66 16.772 208.46 16.404C208.26 16.036 207.988 15.756 207.644 15.564C207.308 15.364 206.936 15.264 206.528 15.264C206.12 15.264 205.748 15.36 205.412 15.552C205.076 15.744 204.808 16.024 204.608 16.392C204.408 16.76 204.308 17.192 204.308 17.688C204.308 18.192 204.408 18.632 204.608 19.008C204.808 19.376 205.076 19.66 205.412 19.86C205.748 20.052 206.12 20.148 206.528 20.148C206.936 20.148 207.308 20.052 207.644 19.86C207.988 19.66 208.26 19.376 208.46 19.008C208.66 18.632 208.76 18.196 208.76 17.7ZM62.016 33.648C62.24 33.256 62.568 32.936 63 32.688C63.432 32.44 63.924 32.316 64.476 32.316C65.068 32.316 65.6 32.456 66.072 32.736C66.544 33.016 66.916 33.412 67.188 33.924C67.46 34.428 67.596 35.016 67.596 35.688C67.596 36.352 67.46 36.944 67.188 37.464C66.916 37.984 66.54 38.388 66.06 38.676C65.588 38.964 65.06 39.108 64.476 39.108C63.908 39.108 63.408 38.984 62.976 38.736C62.552 38.488 62.232 38.172 62.016 37.788V39H60.924V30.12H62.016V33.648ZM66.48 35.688C66.48 35.192 66.38 34.76 66.18 34.392C65.98 34.024 65.708 33.744 65.364 33.552C65.028 33.36 64.656 33.264 64.248 33.264C63.848 33.264 63.476 33.364 63.132 33.564C62.796 33.756 62.524 34.04 62.316 34.416C62.116 34.784 62.016 35.212 62.016 35.7C62.016 36.196 62.116 36.632 62.316 37.008C62.524 37.376 62.796 37.66 63.132 37.86C63.476 38.052 63.848 38.148 64.248 38.148C64.656 38.148 65.028 38.052 65.364 37.86C65.708 37.66 65.98 37.376 66.18 37.008C66.38 36.632 66.48 36.192 66.48 35.688ZM74.6974 32.424L70.7374 42.096H69.6094L70.9054 38.928L68.2534 32.424H69.4654L71.5294 37.752L73.5694 32.424H74.6974ZM83.9383 37.14H80.2903L79.6183 39H78.4663L81.4903 30.684H82.7503L85.7623 39H84.6103L83.9383 37.14ZM83.6263 36.252L82.1143 32.028L80.6023 36.252H83.6263ZM88.1723 33.636C88.3883 33.26 88.7083 32.948 89.1323 32.7C89.5643 32.444 90.0643 32.316 90.6323 32.316C91.2163 32.316 91.7443 32.456 92.2162 32.736C92.6962 33.016 93.0723 33.412 93.3443 33.924C93.6163 34.428 93.7523 35.016 93.7523 35.688C93.7523 36.352 93.6163 36.944 93.3443 37.464C93.0723 37.984 92.6962 38.388 92.2162 38.676C91.7443 38.964 91.2163 39.108 90.6323 39.108C90.0723 39.108 89.5763 38.984 89.1443 38.736C88.7203 38.48 88.3963 38.164 88.1723 37.788V42.12H87.0803V32.424H88.1723V33.636ZM92.6363 35.688C92.6363 35.192 92.5363 34.76 92.3363 34.392C92.1363 34.024 91.8643 33.744 91.5203 33.552C91.1843 33.36 90.8123 33.264 90.4043 33.264C90.0043 33.264 89.6323 33.364 89.2883 33.564C88.9523 33.756 88.6803 34.04 88.4723 34.416C88.2723 34.784 88.1723 35.212 88.1723 35.7C88.1723 36.196 88.2723 36.632 88.4723 37.008C88.6803 37.376 88.9523 37.66 89.2883 37.86C89.6323 38.052 90.0043 38.148 90.4043 38.148C90.8123 38.148 91.1843 38.052 91.5203 37.86C91.8643 37.66 92.1363 37.376 92.3363 37.008C92.5363 36.632 92.6363 36.192 92.6363 35.688ZM96.2816 33.636C96.4976 33.26 96.8176 32.948 97.2416 32.7C97.6736 32.444 98.1736 32.316 98.7416 32.316C99.3256 32.316 99.8536 32.456 100.326 32.736C100.806 33.016 101.182 33.412 101.454 33.924C101.726 34.428 101.862 35.016 101.862 35.688C101.862 36.352 101.726 36.944 101.454 37.464C101.182 37.984 100.806 38.388 100.326 38.676C99.8536 38.964 99.3256 39.108 98.7416 39.108C98.1816 39.108 97.6856 38.984 97.2536 38.736C96.8296 38.48 96.5056 38.164 96.2816 37.788V42.12H95.1896V32.424H96.2816V33.636ZM100.746 35.688C100.746 35.192 100.646 34.76 100.446 34.392C100.246 34.024 99.9736 33.744 99.6296 33.552C99.2936 33.36 98.9216 33.264 98.5136 33.264C98.1136 33.264 97.7416 33.364 97.3976 33.564C97.0616 33.756 96.7896 34.04 96.5816 34.416C96.3816 34.784 96.2816 35.212 96.2816 35.7C96.2816 36.196 96.3816 36.632 96.5816 37.008C96.7896 37.376 97.0616 37.66 97.3976 37.86C97.7416 38.052 98.1136 38.148 98.5136 38.148C98.9216 38.148 99.2936 38.052 99.6296 37.86C99.9736 37.66 100.246 37.376 100.446 37.008C100.646 36.632 100.746 36.192 100.746 35.688ZM106.731 39L105.171 36.552L103.671 39H102.531L104.655 35.736L102.531 32.424H103.767L105.327 34.86L106.815 32.424H107.955L105.843 35.676L107.967 39H106.731Z" fill="white"/>
</g>
<defs>
<filter id="filter0_d_365_3124" x="0" y="0" width="225" height="56.845" filterUnits="userSpaceOnUse" color-interpolation-filters="sRGB">
<feFlood flood-opacity="0" result="BackgroundImageFix"/>
<feColorMatrix in="SourceAlpha" type="matrix" values="0 0 0 0 0 0 0 0 0 0 0 0 0 0 0 0 0 0 127 0" result="hardAlpha"/>
<feOffset dy="4"/>
<feGaussianBlur stdDeviation="2"/>
<feComposite in2="hardAlpha" operator="out"/>
<feColorMatrix type="matrix" values="0 0 0 0 0 0 0 0 0 0 0 0 0 0 0 0 0 0 0.25 0"/>
<feBlend mode="normal" in2="BackgroundImageFix" result="effect1_dropShadow_365_3124"/>
<feBlend mode="normal" in="SourceGraphic" in2="effect1_dropShadow_365_3124" result="shape"/>
</filter>
<filter id="filter1_b_365_3124" x="3" y="-1" width="219" height="50.845" filterUnits="userSpaceOnUse" color-interpolation-filters="sRGB">
<feFlood flood-opacity="0" result="BackgroundImageFix"/>
<feGaussianBlur in="BackgroundImageFix" stdDeviation="0.5"/>
<feComposite in2="SourceAlpha" operator="in" result="effect1_backgroundBlur_365_3124"/>
<feBlend mode="normal" in="SourceGraphic" in2="effect1_backgroundBlur_365_3124" result="shape"/>
</filter>
</defs>
</svg>
