<svg width="30" height="105" viewBox="0 0 30 105" fill="none" xmlns="http://www.w3.org/2000/svg">
<path d="M15 2.22656C8.86663 2.22656 3.88885 7.20434 3.88885 13.3377C3.88885 19.471 8.86663 24.4488 15 24.4488C21.1333 24.4488 26.1111 19.471 26.1111 13.3377C26.1111 7.20434 21.1333 2.22656 15 2.22656ZM15 22.2266C10.0889 22.2266 6.11108 18.2488 6.11108 13.3377C6.11108 8.42656 10.0889 4.44879 15 4.44879C19.9111 4.44879 23.8889 8.42656 23.8889 13.3377C23.8889 18.2488 19.9111 22.2266 15 22.2266Z" fill="#30D158"/>
<path d="M14.7916 16.25C16.5175 16.25 17.9166 14.8509 17.9166 13.125C17.9166 11.3991 16.5175 10 14.7916 10C13.0657 10 11.6666 11.3991 11.6666 13.125C11.6666 14.8509 13.0657 16.25 14.7916 16.25Z" fill="#30D158"/>
<path d="M15 30.0005L15 71.6668" stroke="#30D158" stroke-width="1.5" stroke-linecap="round" stroke-linejoin="round" stroke-dasharray="3 3"/>
<g clip-path="url(#clip0_473_3434)">
<path d="M15 77.5C10.1625 77.5 6.25 81.4125 6.25 86.25C6.25 92.8125 15 102.5 15 102.5C15 102.5 23.75 92.8125 23.75 86.25C23.75 81.4125 19.8375 77.5 15 77.5ZM8.75 86.25C8.75 82.8 11.55 80 15 80C18.45 80 21.25 82.8 21.25 86.25C21.25 89.85 17.65 95.2375 15 98.6C12.4 95.2625 8.75 89.8125 8.75 86.25Z" fill="#30D158"/>
<path d="M15 89.375C16.7259 89.375 18.125 87.9759 18.125 86.25C18.125 84.5241 16.7259 83.125 15 83.125C13.2741 83.125 11.875 84.5241 11.875 86.25C11.875 87.9759 13.2741 89.375 15 89.375Z" fill="#30D158"/>
</g>
<defs>
<clipPath id="clip0_473_3434">
<rect width="30" height="30" fill="white" transform="translate(0 75)"/>
</clipPath>
</defs>
</svg>
