<svg width="180" height="52" viewBox="0 0 180 52" fill="none" xmlns="http://www.w3.org/2000/svg">
<path d="M173.333 52H6.66666C3.00166 52 0 49.0734 0 45.5V6.50006C0 2.92669 3.00166 6.38962e-05 6.66666 6.38962e-05H173.333C176.998 6.38962e-05 180 2.92669 180 6.50006V45.5C180 49.0734 176.998 52 173.333 52Z" fill="black"/>
<path d="M173.333 1.04169C176.42 1.04169 178.931 3.49056 178.931 6.50006V45.5C178.931 48.5095 176.42 50.9584 173.333 50.9584H6.66666C3.58 50.9584 1.06833 48.5095 1.06833 45.5V6.50006C1.06833 3.49056 3.58 1.04169 6.66666 1.04169H173.333ZM173.333 6.38962e-05H6.66666C3.00166 6.38962e-05 0 2.92669 0 6.50006V45.5C0 49.0734 3.00166 52 6.66666 52H173.333C176.998 52 180 49.0734 180 45.5V6.50006C180 2.92669 176.998 6.38962e-05 173.333 6.38962e-05Z" fill="#A6A6A6"/>
<path d="M14.6183 9.09418C14.2267 9.49393 14 10.1163 14 10.9223V39.6718C14 40.4778 14.2267 41.1001 14.6183 41.4999L14.715 41.5876L31.2383 25.4839V25.1037L14.715 8.99993L14.6183 9.09418Z" fill="url(#paint0_linear_365_2704)"/>
<path d="M36.0347 31.5608L30.5331 26.1902V25.8099L36.0414 20.4393L36.1647 20.5092L42.6881 24.1281C44.5497 25.155 44.5497 26.845 42.6881 27.8785L36.1647 31.4909L36.0347 31.5608Z" fill="url(#paint1_linear_365_2704)"/>
<path d="M36.1648 31.491L30.5332 26.0001L13.9132 42.2062C14.5315 42.84 15.5399 42.9163 16.6865 42.2826L36.1648 31.491Z" fill="url(#paint2_linear_365_2704)"/>
<path d="M36.1648 20.5091L16.6865 9.71752C15.5399 9.09027 14.5315 9.16665 13.9132 9.8004L30.5332 26L36.1648 20.5091Z" fill="url(#paint3_linear_365_2704)"/>
<path d="M63.223 13.3169C63.223 14.4024 62.8897 15.2718 62.233 15.9202C61.478 16.6888 60.4947 17.0755 59.2897 17.0755C58.138 17.0755 57.1547 16.6823 56.348 15.9072C55.5397 15.1207 55.1364 14.1554 55.1364 13.0001C55.1364 11.8447 55.5397 10.8794 56.348 10.0994C57.1547 9.31781 58.138 8.92456 59.2897 8.92456C59.863 8.92456 60.4097 9.03994 60.9313 9.25444C61.4513 9.47056 61.8747 9.76306 62.1813 10.1238L61.4847 10.8096C60.9497 10.1937 60.2213 9.88981 59.2897 9.88981C58.4497 9.88981 57.7214 10.1758 57.103 10.7527C56.4914 11.3312 56.1847 12.0803 56.1847 13.0001C56.1847 13.9198 56.4914 14.6754 57.103 15.2539C57.7214 15.8243 58.4497 16.1168 59.2897 16.1168C60.1813 16.1168 60.9313 15.8243 61.523 15.2474C61.913 14.8656 62.1347 14.3391 62.193 13.6663H59.2897V12.7271H63.163C63.2097 12.9302 63.223 13.1268 63.223 13.3169Z" fill="white"/>
<path fill-rule="evenodd" clip-rule="evenodd" d="M59.2897 9.02446C58.1633 9.02446 57.2052 9.40808 56.4176 10.1712C55.6294 10.9317 55.2364 11.8709 55.2364 13C55.2364 14.1289 55.6292 15.068 56.4176 15.8352C57.2052 16.5919 58.1634 16.9755 59.2897 16.9755C60.4713 16.9755 61.4278 16.5972 62.1617 15.85L62.1628 15.8489C62.7973 15.2224 63.123 14.3804 63.123 13.3168C63.123 13.1562 63.1133 12.9933 63.0818 12.827H59.3897V13.5662H62.3021L62.2927 13.6748C62.2328 14.3653 62.004 14.9163 61.593 15.3188C60.9811 15.9153 60.2053 16.2167 59.2897 16.2167C58.4239 16.2167 57.6715 15.9143 57.0352 15.3273C56.4015 14.728 56.0847 13.9442 56.0847 13C56.0847 12.0555 56.4008 11.2791 57.0343 10.6799C57.6712 10.0858 58.4244 9.78971 59.2897 9.78971C60.2055 9.78971 60.9393 10.0771 61.489 10.6649L62.0437 10.1189C61.7548 9.80394 61.3671 9.54375 60.8932 9.34676C60.3829 9.13696 59.8492 9.02446 59.2897 9.02446ZM56.2785 10.0274C57.1043 9.22733 58.1128 8.82446 59.2897 8.82446C59.8768 8.82446 60.4364 8.94269 60.9694 9.16185C61.5009 9.38277 61.9387 9.68384 62.2576 10.0589L62.3178 10.1298L61.479 10.9554L61.4092 10.875C60.8961 10.2844 60.1972 9.98971 59.2897 9.98971C58.4752 9.98971 57.7713 10.266 57.1715 10.8255C56.5819 11.3832 56.2847 12.1051 56.2847 13C56.2847 13.895 56.582 14.6232 57.1713 15.1808C57.7716 15.7343 58.4757 16.0167 59.2897 16.0167C60.1574 16.0167 60.8816 15.733 61.4531 15.1759C61.8014 14.8348 62.0121 14.3684 62.0824 13.7662H59.1897V12.627H63.2427L63.2605 12.7046C63.3094 12.9174 63.323 13.1221 63.323 13.3168C63.323 14.424 62.9823 15.3205 62.3038 15.9907C61.5278 16.7804 60.5178 17.1755 59.2897 17.1755C58.1128 17.1755 57.1045 16.7726 56.2788 15.9792C55.4506 15.1734 55.0364 14.1817 55.0364 13C55.0364 11.8183 55.4501 10.8269 56.2785 10.0274Z" fill="white"/>
<path d="M69.3682 10.0604H65.7298V12.5304H69.0098V13.4696H65.7298V15.9396H69.3682V16.8968H64.6998V9.10327H69.3682V10.0604Z" fill="white"/>
<path fill-rule="evenodd" clip-rule="evenodd" d="M64.5997 9.00317H69.4681V10.1603H65.8297V12.4303H69.1097V13.5695H65.8297V15.8395H69.4681V16.9967H64.5997V9.00317ZM64.7997 9.20317V16.7967H69.2681V16.0395H65.6297V13.3695H68.9097V12.6303H65.6297V9.9603H69.2681V9.20317H64.7997Z" fill="white"/>
<path d="M73.7048 16.8968H72.6748V10.0604H70.4431V9.10327H75.9381V10.0604H73.7048V16.8968Z" fill="white"/>
<path fill-rule="evenodd" clip-rule="evenodd" d="M70.3431 9.00317H76.0381V10.1603H73.8048V16.8967H73.7048V16.9967H72.5748V10.1603H70.3431V9.00317ZM73.6048 16.7967V9.9603H75.8381V9.20317H70.5431V9.9603H72.7748V16.7967H73.6048Z" fill="white"/>
<path d="M79.9148 16.8968V9.10327H80.9431V16.8968H79.9148Z" fill="white"/>
<path fill-rule="evenodd" clip-rule="evenodd" d="M79.8148 9.00317H81.0432V16.9967H79.8148V9.00317ZM80.0148 9.20317V16.7967H80.8432V9.20317H80.0148Z" fill="white"/>
<path d="M85.5013 16.8968H84.4796V10.0604H82.2396V9.10327H87.7413V10.0604H85.5013V16.8968Z" fill="white"/>
<path fill-rule="evenodd" clip-rule="evenodd" d="M82.1396 9.00317H87.8413V10.1603H85.6013V16.9967H84.3796V10.1603H82.1396V9.00317ZM82.3396 9.20317V9.9603H84.5796V16.7967H85.4013V9.9603H87.6413V9.20317H82.3396Z" fill="white"/>
<path d="M98.1448 15.8942C97.3565 16.6823 96.3798 17.0755 95.2148 17.0755C94.0432 17.0755 93.0665 16.6823 92.2782 15.8942C91.4915 15.1077 91.0999 14.1424 91.0999 13.0001C91.0999 11.8577 91.4915 10.8924 92.2782 10.1059C93.0665 9.31781 94.0432 8.92456 95.2148 8.92456C96.3732 8.92456 97.3499 9.31781 98.1382 10.1124C98.9315 10.9054 99.3232 11.8642 99.3232 13.0001C99.3232 14.1424 98.9315 15.1077 98.1448 15.8942ZM93.0399 15.2409C93.6332 15.8243 94.3548 16.1168 95.2148 16.1168C96.0682 16.1168 96.7965 15.8243 97.3832 15.2409C97.9748 14.6576 98.2748 13.9084 98.2748 13.0001C98.2748 12.0917 97.9748 11.3426 97.3832 10.7592C96.7965 10.1758 96.0682 9.88331 95.2148 9.88331C94.3548 9.88331 93.6332 10.1758 93.0399 10.7592C92.4482 11.3426 92.1482 12.0917 92.1482 13.0001C92.1482 13.9084 92.4482 14.6576 93.0399 15.2409Z" fill="white"/>
<path fill-rule="evenodd" clip-rule="evenodd" d="M95.2149 9.02446C94.0682 9.02446 93.1175 9.4082 92.3489 10.1766C91.5817 10.9437 91.1999 11.8832 91.1999 13C91.1999 14.1167 91.5817 15.0563 92.3489 15.8234C93.1175 16.5917 94.0682 16.9755 95.2149 16.9755C96.3547 16.9755 97.3055 16.5918 98.0742 15.8234C98.8414 15.0563 99.2232 14.1167 99.2232 13C99.2232 11.8901 98.8417 10.9569 98.0675 10.1831L98.0672 10.1828C97.2986 9.40803 96.3479 9.02446 95.2149 9.02446ZM92.2075 10.0351C93.0156 9.22723 94.0182 8.82446 95.2149 8.82446C96.3984 8.82446 97.401 9.22734 98.2091 10.0418C99.0214 10.8539 99.4232 11.8382 99.4232 13C99.4232 14.1679 99.0216 15.1589 98.2156 15.9648L98.155 15.9042L98.2156 15.9648C97.4075 16.7726 96.405 17.1755 95.2149 17.1755C94.0182 17.1755 93.0156 16.7727 92.2075 15.9648L92.2782 15.8941L92.2075 15.9648C91.4014 15.1589 90.9999 14.1679 90.9999 13C90.9999 11.832 91.4014 10.841 92.2075 10.0351L92.2075 10.0351ZM92.9698 10.6878C93.5823 10.0855 94.3294 9.78321 95.2149 9.78321C96.0934 9.78321 96.8474 10.0853 97.4536 10.688C98.0659 11.2919 98.3749 12.0674 98.3749 13C98.3749 13.9325 98.0659 14.7081 97.4536 15.3119C96.8474 15.9146 96.0934 16.2167 95.2149 16.2167C94.3294 16.2167 93.5823 15.9144 92.9698 15.3121L93.04 15.2407L92.9697 15.312C92.3572 14.7082 92.0482 13.9326 92.0482 13C92.0482 12.0673 92.3572 11.2917 92.9697 10.6879L92.9698 10.6878ZM93.1101 15.1696C93.6842 15.734 94.3804 16.0167 95.2149 16.0167C96.0429 16.0167 96.7456 15.7339 97.3127 15.1699L97.313 15.1696C97.8839 14.6067 98.1749 13.8841 98.1749 13C98.1749 12.1158 97.8839 11.3932 97.313 10.8303L97.3127 10.83C96.7456 10.266 96.0429 9.98321 95.2149 9.98321C94.3804 9.98321 93.6841 10.2659 93.11 10.8304C92.5392 11.3932 92.2482 12.1159 92.2482 13C92.2482 13.8841 92.5392 14.6067 93.1101 15.1696Z" fill="white"/>
<path d="M100.768 16.8968V9.10327H102.018L105.905 15.1645H105.95L105.905 13.6663V9.10327H106.933V16.8968H105.86L101.79 10.5365H101.745L101.79 12.0413V16.8968H100.768Z" fill="white"/>
<path fill-rule="evenodd" clip-rule="evenodd" d="M100.668 9.00317H102.073L105.841 14.88L105.805 13.6662L105.805 9.00317H107.033V16.9967H105.805L101.853 10.8213L101.89 12.0412L101.89 16.9967H100.768V16.8967H100.668V9.00317ZM100.868 16.7967H101.69V12.0427L101.642 10.4364H101.845L105.915 16.7967H106.833V9.20317H106.005V13.6647L106.053 15.2644H105.85L101.964 9.20317H100.868V16.7967Z" fill="white"/>
<path d="M90.8466 28.2783C87.7149 28.2783 85.1566 30.6021 85.1566 33.8082C85.1566 36.9883 87.7149 39.3364 90.8466 39.3364C93.9849 39.3364 96.5432 36.9883 96.5432 33.8082C96.5432 30.6021 93.9849 28.2783 90.8466 28.2783ZM90.8466 37.1589C89.1283 37.1589 87.6499 35.776 87.6499 33.8082C87.6499 31.8143 89.1283 30.4558 90.8466 30.4558C92.5649 30.4558 94.0499 31.8143 94.0499 33.8082C94.0499 35.776 92.5649 37.1589 90.8466 37.1589ZM78.4316 28.2783C75.2933 28.2783 72.7416 30.6021 72.7416 33.8082C72.7416 36.9883 75.2933 39.3364 78.4316 39.3364C81.5683 39.3364 84.1216 36.9883 84.1216 33.8082C84.1216 30.6021 81.5683 28.2783 78.4316 28.2783ZM78.4316 37.1589C76.7116 37.1589 75.2283 35.776 75.2283 33.8082C75.2283 31.8143 76.7116 30.4558 78.4316 30.4558C80.1499 30.4558 81.6283 31.8143 81.6283 33.8082C81.6283 35.776 80.1499 37.1589 78.4316 37.1589ZM63.6583 29.9732V32.3229H69.4133C69.2449 33.6359 68.7949 34.6012 68.1049 35.2739C67.2649 36.0864 65.9566 36.9883 63.6583 36.9883C60.1166 36.9883 57.3433 34.2014 57.3433 30.7483C57.3433 27.2952 60.1166 24.5083 63.6583 24.5083C65.5733 24.5083 66.9666 25.2379 67.995 26.1837L69.6933 24.5278C68.255 23.1888 66.3416 22.1602 63.6583 22.1602C58.8016 22.1602 54.72 26.0131 54.72 30.7483C54.72 35.4835 58.8016 39.3364 63.6583 39.3364C66.2833 39.3364 68.2549 38.4979 69.8049 36.9249C71.3933 35.3763 71.8883 33.1988 71.8883 31.4405C71.8883 30.8946 71.8416 30.3924 71.7583 29.9732H63.6583ZM124.068 31.7948C123.6 30.5582 122.155 28.2783 119.212 28.2783C116.295 28.2783 113.867 30.5192 113.867 33.8082C113.867 36.9054 116.27 39.3364 119.492 39.3364C122.097 39.3364 123.6 37.7878 124.218 36.8859L122.285 35.6298C121.64 36.5495 120.762 37.1589 119.492 37.1589C118.23 37.1589 117.325 36.595 116.745 35.4835L124.33 32.4237L124.068 31.7948ZM116.335 33.6359C116.27 31.5039 118.033 30.4119 119.297 30.4119C120.287 30.4119 121.127 30.8946 121.407 31.5852L116.335 33.6359ZM110.17 39H112.663V22.7501H110.17V39ZM106.087 29.5101H106.003C105.443 28.8633 104.375 28.2783 103.022 28.2783C100.182 28.2783 97.5849 30.7093 97.5849 33.826C97.5849 36.9249 100.182 39.3364 103.022 39.3364C104.375 39.3364 105.443 38.7465 106.003 38.0803H106.087V38.8733C106.087 40.9874 104.928 42.1233 103.06 42.1233C101.537 42.1233 100.592 41.0508 100.202 40.1489L98.0332 41.0313C98.6582 42.497 100.313 44.3008 103.06 44.3008C105.983 44.3008 108.45 42.6238 108.45 38.5434V28.6147H106.087V29.5101ZM103.235 37.1589C101.517 37.1589 100.078 35.7565 100.078 33.826C100.078 31.8777 101.517 30.4558 103.235 30.4558C104.928 30.4558 106.263 31.8777 106.263 33.826C106.263 35.7565 104.928 37.1589 103.235 37.1589ZM135.742 22.7501H129.778V39H132.265V32.8429H135.742C138.503 32.8429 141.211 30.8946 141.211 27.7957C141.211 24.6984 138.497 22.7501 135.742 22.7501ZM135.807 30.5826H132.265V25.0104H135.807C137.663 25.0104 138.723 26.5136 138.723 27.7957C138.723 29.0534 137.663 30.5826 135.807 30.5826ZM151.178 28.2474C149.381 28.2474 147.513 29.0209 146.745 30.7353L148.951 31.6372C149.426 30.7353 150.3 30.4428 151.223 30.4428C152.513 30.4428 153.821 31.1984 153.841 32.5325V32.7032C153.391 32.4497 152.428 32.0743 151.243 32.0743C148.866 32.0743 146.445 33.3499 146.445 35.7305C146.445 37.908 148.391 39.3104 150.58 39.3104C152.253 39.3104 153.176 38.5743 153.756 37.7179H153.841V38.974H156.243V32.7405C156.243 29.8594 154.036 28.2474 151.178 28.2474ZM150.878 37.1524C150.065 37.1524 148.932 36.7592 148.932 35.776C148.932 34.5183 150.345 34.0357 151.568 34.0357C152.663 34.0357 153.176 34.2713 153.841 34.5817C153.646 36.0864 152.318 37.1524 150.878 37.1524ZM164.993 28.6033L162.135 35.6477H162.05L159.095 28.6033H156.413L160.853 38.4475L158.32 43.9254H160.918L167.76 28.6033H164.993ZM142.578 39H145.072V22.7501H142.578V39Z" fill="white"/>
<defs>
<linearGradient id="paint0_linear_365_2704" x1="29.7712" y1="39.9712" x2="7.96113" y2="17.6018" gradientUnits="userSpaceOnUse">
<stop stop-color="#00A0FF"/>
<stop offset="0.0066" stop-color="#00A1FF"/>
<stop offset="0.2601" stop-color="#00BEFF"/>
<stop offset="0.5122" stop-color="#00D2FF"/>
<stop offset="0.7604" stop-color="#00DFFF"/>
<stop offset="1" stop-color="#00E3FF"/>
</linearGradient>
<linearGradient id="paint1_linear_365_2704" x1="45.1123" y1="25.9982" x2="12.8498" y2="25.9982" gradientUnits="userSpaceOnUse">
<stop stop-color="#FFE000"/>
<stop offset="0.4087" stop-color="#FFBD00"/>
<stop offset="0.7754" stop-color="#FFA500"/>
<stop offset="1" stop-color="#FF9C00"/>
</linearGradient>
<linearGradient id="paint2_linear_365_2704" x1="33.1025" y1="23.0152" x2="3.52625" y2="-7.31945" gradientUnits="userSpaceOnUse">
<stop stop-color="#FF3A44"/>
<stop offset="1" stop-color="#C31162"/>
</linearGradient>
<linearGradient id="paint3_linear_365_2704" x1="9.72961" y1="51.7709" x2="22.9367" y2="38.2253" gradientUnits="userSpaceOnUse">
<stop stop-color="#32A071"/>
<stop offset="0.0685" stop-color="#2DA771"/>
<stop offset="0.4762" stop-color="#15CF74"/>
<stop offset="0.8009" stop-color="#06E775"/>
<stop offset="1" stop-color="#00F076"/>
</linearGradient>
</defs>
</svg>
