<svg width="128" height="106" viewBox="0 0 128 106" fill="none" xmlns="http://www.w3.org/2000/svg">
<path d="M0 0H8V7H0V0Z" fill="white"/>
<path d="M0 11H8V18H0V11Z" fill="white"/>
<path d="M0 22H8V29H0V22Z" fill="white"/>
<path d="M0 33H8V40H0V33Z" fill="white"/>
<path d="M0 44H8V51H0V44Z" fill="white"/>
<path d="M0 55H8V62H0V55Z" fill="white"/>
<path d="M0 66H8V73H0V66Z" fill="white"/>
<path d="M0 77H8V84H0V77Z" fill="white"/>
<path d="M0 88H8V95H0V88Z" fill="white"/>
<path d="M0 99H8V106H0V99Z" fill="white"/>
<path d="M12 0H20V7H12V0Z" fill="white"/>
<path d="M12 11H20V18H12V11Z" fill="white"/>
<path d="M12 22H20V29H12V22Z" fill="white"/>
<path d="M12 33H20V40H12V33Z" fill="white"/>
<path d="M12 44H20V51H12V44Z" fill="white"/>
<path d="M12 55H20V62H12V55Z" fill="white"/>
<path d="M12 66H20V73H12V66Z" fill="white"/>
<path d="M12 77H20V84H12V77Z" fill="white"/>
<path d="M12 88H20V95H12V88Z" fill="white"/>
<path d="M12 99H20V106H12V99Z" fill="white"/>
<path d="M24 0H32V7H24V0Z" fill="white"/>
<path d="M24 11H32V18H24V11Z" fill="white"/>
<path d="M24 22H32V29H24V22Z" fill="white"/>
<path d="M24 33H32V40H24V33Z" fill="white"/>
<path d="M24 44H32V51H24V44Z" fill="white"/>
<path d="M24 55H32V62H24V55Z" fill="white"/>
<path d="M24 66H32V73H24V66Z" fill="white"/>
<path d="M24 77H32V84H24V77Z" fill="white"/>
<path d="M24 88H32V95H24V88Z" fill="white"/>
<path d="M24 99H32V106H24V99Z" fill="white"/>
<path d="M36 0H44V7H36V0Z" fill="white"/>
<path d="M36 11H44V18H36V11Z" fill="white"/>
<path d="M36 22H44V29H36V22Z" fill="white"/>
<path d="M36 33H44V40H36V33Z" fill="white"/>
<path d="M36 44H44V51H36V44Z" fill="white"/>
<path d="M36 55H44V62H36V55Z" fill="white"/>
<path d="M36 66H44V73H36V66Z" fill="white"/>
<path d="M36 77H44V84H36V77Z" fill="white"/>
<path d="M36 88H44V95H36V88Z" fill="white"/>
<path d="M36 99H44V106H36V99Z" fill="white"/>
<path d="M48 0H56V7H48V0Z" fill="white"/>
<path d="M48 11H56V18H48V11Z" fill="white"/>
<path d="M48 22H56V29H48V22Z" fill="white"/>
<path d="M48 33H56V40H48V33Z" fill="white"/>
<path d="M48 44H56V51H48V44Z" fill="white"/>
<path d="M48 55H56V62H48V55Z" fill="white"/>
<path d="M48 66H56V73H48V66Z" fill="white"/>
<path d="M48 77H56V84H48V77Z" fill="white"/>
<path d="M48 88H56V95H48V88Z" fill="white"/>
<path d="M48 99H56V106H48V99Z" fill="white"/>
<path d="M60 0H68V7H60V0Z" fill="white"/>
<path d="M60 11H68V18H60V11Z" fill="white"/>
<path d="M60 22H68V29H60V22Z" fill="white"/>
<path d="M60 33H68V40H60V33Z" fill="white"/>
<path d="M60 44H68V51H60V44Z" fill="white"/>
<path d="M60 55H68V62H60V55Z" fill="white"/>
<path d="M60 66H68V73H60V66Z" fill="white"/>
<path d="M60 77H68V84H60V77Z" fill="white"/>
<path d="M60 88H68V95H60V88Z" fill="white"/>
<path d="M60 99H68V106H60V99Z" fill="white"/>
<path d="M72 0H80V7H72V0Z" fill="white"/>
<path d="M72 11H80V18H72V11Z" fill="white"/>
<path d="M72 22H80V29H72V22Z" fill="white"/>
<path d="M72 33H80V40H72V33Z" fill="white"/>
<path d="M72 44H80V51H72V44Z" fill="white"/>
<path d="M72 55H80V62H72V55Z" fill="white"/>
<path d="M72 66H80V73H72V66Z" fill="white"/>
<path d="M72 77H80V84H72V77Z" fill="white"/>
<path d="M72 88H80V95H72V88Z" fill="white"/>
<path d="M72 99H80V106H72V99Z" fill="white"/>
<path d="M84 0H92V7H84V0Z" fill="white"/>
<path d="M84 11H92V18H84V11Z" fill="white"/>
<path d="M84 22H92V29H84V22Z" fill="white"/>
<path d="M84 33H92V40H84V33Z" fill="white"/>
<path d="M84 44H92V51H84V44Z" fill="white"/>
<path d="M84 55H92V62H84V55Z" fill="white"/>
<path d="M84 66H92V73H84V66Z" fill="white"/>
<path d="M84 77H92V84H84V77Z" fill="white"/>
<path d="M84 88H92V95H84V88Z" fill="white"/>
<path d="M84 99H92V106H84V99Z" fill="white"/>
<path d="M96 0H104V7H96V0Z" fill="white"/>
<path d="M96 11H104V18H96V11Z" fill="white"/>
<path d="M96 22H104V29H96V22Z" fill="white"/>
<path d="M96 33H104V40H96V33Z" fill="white"/>
<path d="M96 44H104V51H96V44Z" fill="white"/>
<path d="M96 55H104V62H96V55Z" fill="white"/>
<path d="M96 66H104V73H96V66Z" fill="white"/>
<path d="M96 77H104V84H96V77Z" fill="white"/>
<path d="M96 88H104V95H96V88Z" fill="white"/>
<path d="M96 99H104V106H96V99Z" fill="white"/>
<path d="M108 0H116V7H108V0Z" fill="white"/>
<path d="M108 11H116V18H108V11Z" fill="white"/>
<path d="M108 22H116V29H108V22Z" fill="white"/>
<path d="M108 33H116V40H108V33Z" fill="white"/>
<path d="M108 44H116V51H108V44Z" fill="white"/>
<path d="M108 55H116V62H108V55Z" fill="white"/>
<path d="M108 66H116V73H108V66Z" fill="white"/>
<path d="M108 77H116V84H108V77Z" fill="white"/>
<path d="M108 88H116V95H108V88Z" fill="white"/>
<path d="M108 99H116V106H108V99Z" fill="white"/>
<path d="M120 0H128V7H120V0Z" fill="white"/>
<path d="M120 11H128V18H120V11Z" fill="white"/>
<path d="M120 22H128V29H120V22Z" fill="white"/>
<path d="M120 33H128V40H120V33Z" fill="white"/>
<path d="M120 44H128V51H120V44Z" fill="white"/>
<path d="M120 55H128V62H120V55Z" fill="white"/>
<path d="M120 66H128V73H120V66Z" fill="white"/>
<path d="M120 77H128V84H120V77Z" fill="white"/>
<path d="M120 88H128V95H120V88Z" fill="white"/>
<path d="M120 99H128V106H120V99Z" fill="white"/>
</svg>
