<svg width="25" height="26" viewBox="0 0 25 26" fill="none" xmlns="http://www.w3.org/2000/svg">
<path d="M22.0786 0.619629H2.82302C2.12663 0.619629 1.45876 0.89627 0.966331 1.38869C0.473907 1.88112 0.197266 2.54899 0.197266 3.24538L0.197266 22.5009C0.197266 23.1973 0.473907 23.8652 0.966331 24.3576C1.45876 24.85 2.12663 25.1267 2.82302 25.1267H10.331V16.7948H6.88473V12.8731H10.331V9.88417C10.331 6.48436 12.3551 4.6064 15.4551 4.6064C16.9397 4.6064 18.4922 4.87116 18.4922 4.87116V8.20806H16.7816C15.0962 8.20806 14.5705 9.25398 14.5705 10.3267V12.8731H18.333L17.7313 16.7948H14.5705V25.1267H22.0786C22.7749 25.1267 23.4428 24.85 23.9352 24.3576C24.4277 23.8652 24.7043 23.1973 24.7043 22.5009V3.24538C24.7043 2.54899 24.4277 1.88112 23.9352 1.38869C23.4428 0.89627 22.7749 0.619629 22.0786 0.619629Z" fill="white"/>
</svg>
