<svg width="25" height="26" viewBox="0 0 25 26" fill="none" xmlns="http://www.w3.org/2000/svg">
<path d="M12.6928 6.58852C9.21559 6.58852 6.41088 9.39323 6.41088 12.8704C6.41088 16.3476 9.21559 19.1523 12.6928 19.1523C16.17 19.1523 18.9747 16.3476 18.9747 12.8704C18.9747 9.39323 16.17 6.58852 12.6928 6.58852ZM12.6928 16.9545C10.4457 16.9545 8.60873 15.1229 8.60873 12.8704C8.60873 10.6179 10.4403 8.78636 12.6928 8.78636C14.9453 8.78636 16.7768 10.6179 16.7768 12.8704C16.7768 15.1229 14.9398 16.9545 12.6928 16.9545ZM20.6969 6.33156C20.6969 7.14618 20.0408 7.79679 19.2316 7.79679C18.417 7.79679 17.7664 7.14072 17.7664 6.33156C17.7664 5.5224 18.4225 4.86633 19.2316 4.86633C20.0408 4.86633 20.6969 5.5224 20.6969 6.33156ZM24.8575 7.81866C24.7645 5.85591 24.3162 4.11732 22.8783 2.68489C21.4459 1.25247 19.7073 0.804149 17.7445 0.705738C15.7216 0.590926 9.65844 0.590926 7.63555 0.705738C5.67827 0.798682 3.93968 1.247 2.50179 2.67942C1.06389 4.11185 0.621044 5.85044 0.522633 7.81319C0.40782 9.83608 0.40782 15.8993 0.522633 17.9222C0.615577 19.8849 1.06389 21.6235 2.50179 23.0559C3.93968 24.4884 5.6728 24.9367 7.63555 25.0351C9.65844 25.1499 15.7216 25.1499 17.7445 25.0351C19.7073 24.9421 21.4459 24.4938 22.8783 23.0559C24.3107 21.6235 24.759 19.8849 24.8575 17.9222C24.9723 15.8993 24.9723 9.84155 24.8575 7.81866ZM22.2441 20.0927C21.8177 21.1643 20.9921 21.9898 19.915 22.4217C18.3022 23.0614 14.4751 22.9138 12.6928 22.9138C10.9104 22.9138 7.07789 23.0559 5.47051 22.4217C4.39893 21.9953 3.57337 21.1697 3.14146 20.0927C2.50179 18.4798 2.6494 14.6527 2.6494 12.8704C2.6494 11.0881 2.50725 7.25553 3.14146 5.64815C3.5679 4.57657 4.39346 3.75101 5.47051 3.31909C7.08336 2.67942 10.9104 2.82704 12.6928 2.82704C14.4751 2.82704 18.3077 2.68489 19.915 3.31909C20.9866 3.74554 21.8122 4.5711 22.2441 5.64815C22.8838 7.261 22.7362 11.0881 22.7362 12.8704C22.7362 14.6527 22.8838 18.4853 22.2441 20.0927Z" fill="white"/>
</svg>
