<svg width="135" height="54" viewBox="0 0 135 54" fill="none" xmlns="http://www.w3.org/2000/svg">
<g clip-path="url(#clip0_196_1382)">
<path d="M10.27 0H38.8161C44.1572 0.235456 48.0039 3.8531 48.8203 9.95145L49.0834 26.5426C49.1542 32.7518 47.8795 35.5518 43.3271 39.1832L24.5501 53.1818H24.5359L5.75889 39.1832C1.20652 35.5518 -0.0666921 32.7518 0.00265394 26.5426L0.265761 9.95145C1.08211 3.8531 4.92877 0.235456 10.27 0Z" fill="#F50537"/>
<path d="M1.60558 10.3738C1.97882 7.66683 3.01544 5.41034 4.6053 3.85255C6.15335 2.33562 8.23068 1.47654 10.6139 1.36673H39.1142C41.3919 1.47143 43.3973 2.26463 44.9214 3.66153C46.1992 4.83625 47.1471 6.44307 47.7019 8.36553C45.7163 8.18677 43.7048 8.09586 41.7039 8.09586C26.203 8.09586 11.671 13.4516 1.40723 22.8657L1.60558 10.3738Z" fill="url(#paint0_linear_196_1382)"/>
<path d="M38.1206 36.8429H18.2759C16.9925 36.8432 15.7378 36.4623 14.6706 35.7483C13.6033 35.0343 12.7715 34.0193 12.2802 32.8317C11.789 31.644 11.6604 30.3371 11.9108 29.0763C12.1612 27.8154 12.7792 26.6573 13.6868 25.7484L20.3665 19.0576L24.5838 23.282L17.9042 29.9728C17.8379 30.0392 17.6543 30.2205 17.79 30.5464C17.9256 30.8722 18.1785 30.8692 18.2749 30.8692H32.1563L38.1206 36.8429Z" fill="white"/>
<path d="M28.801 27.5066L24.5836 23.2822L31.2709 16.5868C31.3372 16.5204 31.5177 16.3365 31.3826 16.0137C31.2475 15.6909 30.9935 15.6904 30.9002 15.6904H17.0019L11.0361 9.71466H30.8997C32.1829 9.71493 33.4372 10.0962 34.504 10.8104C35.5709 11.5246 36.4025 12.5395 36.8936 13.7269C37.3848 14.9144 37.5134 16.221 37.2634 17.4817C37.0133 18.7424 36.3958 19.9005 35.4888 20.8097L28.801 27.5066Z" fill="white"/>
<path d="M104.784 7.18893V21.0589C104.784 22.8868 104.157 24.4845 102.887 25.8854C101.618 27.2864 99.93 27.9795 97.7915 27.9795H88.9473C86.8404 27.9795 85.1516 27.2874 83.8519 25.8854C82.5818 24.4845 81.9546 22.8868 81.9546 21.0589V7.18893H87.1418V20.2182C87.1418 21.1411 87.4411 21.8822 88.0229 22.4256C88.6348 23.0028 89.3828 23.2821 90.2792 23.2821H96.4948C97.4213 23.2821 98.1688 23.0028 98.7511 22.4256C99.3339 21.8822 99.6327 21.1411 99.6327 20.2182V7.18893H104.784Z" fill="black"/>
<path d="M129.188 7.18893H135L124.527 27.9764H118.803L108.314 7.18893H114.276L121.732 22.5742L129.188 7.18893Z" fill="black"/>
<path d="M78.5148 27.9775H56.6626V24.2051L69.5722 11.8168H56.6626L56.7003 7.18893H77.521V10.9608L64.6267 23.348H78.5525L78.5148 27.9775Z" fill="black"/>
<path d="M62.8702 35.1302C62.8702 35.1884 62.8656 35.2676 62.8574 35.3677H56.7427C56.7665 35.8612 56.9098 36.3415 57.1603 36.7672C57.3992 37.1691 57.7418 37.4992 58.1521 37.7228C58.5767 37.9542 59.0536 38.0726 59.537 38.0665C60.05 38.0777 60.5556 37.9426 60.9951 37.6772C61.4345 37.4117 61.7896 37.0267 62.0191 36.567H62.6662C62.3603 37.2418 61.9353 37.7604 61.3915 38.1227C60.8476 38.485 60.2294 38.6658 59.537 38.6651C58.5641 38.6651 57.7532 38.3299 57.1042 37.6594C56.4553 36.989 56.131 36.1495 56.1313 35.1409C56.1313 34.1494 56.4579 33.3184 57.1109 32.648C57.7639 31.9775 58.5726 31.6423 59.537 31.6423C60.5098 31.6423 61.3087 31.9755 61.9335 32.6418C62.5583 33.3082 62.8705 34.1377 62.8702 35.1302ZM59.537 32.2297C58.7891 32.2297 58.157 32.469 57.6406 32.9478C57.1243 33.4265 56.8291 34.041 56.755 34.7911H62.2685C62.2387 34.4291 62.1436 34.0756 61.988 33.7476C61.8435 33.4403 61.6425 33.1631 61.3955 32.9304C61.1515 32.7037 60.8653 32.5273 60.5532 32.4115C60.2282 32.2897 59.8839 32.2281 59.537 32.2297Z" fill="#F50537"/>
<path d="M69.3038 38.5265H68.6052L66.3377 35.4028L64.0799 38.5265H63.394L65.9762 35.0023L63.6306 31.779H64.3292L66.3499 34.5651L68.3834 31.779H69.0697L66.7119 34.9778L69.3038 38.5265Z" fill="#F50537"/>
<path d="M74.1066 31.6425C75.0958 31.6425 75.9149 31.9757 76.5638 32.6421C77.2128 33.3084 77.5371 34.1455 77.5367 35.1534C77.5367 36.1616 77.2124 36.9988 76.5638 37.6648C75.9153 38.3308 75.0962 38.6636 74.1066 38.6633C73.5216 38.6708 72.9442 38.529 72.4291 38.2511C71.9327 37.9832 71.5137 37.5916 71.2125 37.1142V40.9126H70.6006V31.7799H71.0493L71.1742 33.2545C71.4758 32.761 71.9001 32.3545 72.4056 32.0746C72.9254 31.7847 73.5117 31.6357 74.1066 31.6425ZM74.0557 38.0647C74.8871 38.0647 75.5731 37.7897 76.1136 37.2398C76.6541 36.6899 76.9245 35.9945 76.9248 35.1534C76.9248 34.312 76.6544 33.6166 76.1136 33.067C75.5728 32.5174 74.8868 32.2425 74.0557 32.2421C73.2398 32.2421 72.5579 32.5191 72.0099 33.0731C71.462 33.6271 71.1875 34.3206 71.1865 35.1534C71.1865 35.9866 71.461 36.6801 72.0099 37.2337C72.5589 37.7874 73.2412 38.0644 74.0567 38.0647H74.0557Z" fill="#F50537"/>
<path d="M82.1768 31.7571H82.7627V32.3445H82.1391C81.4654 32.3445 80.9269 32.5694 80.5237 33.0192C80.1206 33.469 79.919 34.0521 79.919 34.7685V38.5291H79.3071V31.7821H79.7686L79.8706 33.1188C80.3519 32.2113 81.1207 31.7575 82.1768 31.7571Z" fill="#F50537"/>
<path d="M89.9609 35.1282C89.9609 35.1864 89.9568 35.2656 89.9481 35.3657H83.836C83.8599 35.8592 84.0034 36.3395 84.2541 36.7651C84.493 37.1671 84.8356 37.4972 85.2458 37.7207C85.6703 37.9522 86.147 38.0706 86.6302 38.0645C87.1433 38.0758 87.649 37.9409 88.0885 37.6754C88.5279 37.4099 88.883 37.0248 89.1124 36.5649H89.7615C89.4535 37.2398 89.0286 37.7584 88.4867 38.1207C87.9449 38.483 87.3265 38.6638 86.6317 38.6631C85.6588 38.6631 84.8481 38.3279 84.1995 37.6574C83.5509 36.987 83.2261 36.1475 83.2251 35.1389C83.2251 34.1474 83.5514 33.3164 84.2041 32.6459C84.8568 31.9755 85.666 31.6409 86.6317 31.6423C87.6046 31.6423 88.4035 31.9755 89.0282 32.6418C89.653 33.3082 89.9639 34.137 89.9609 35.1282ZM86.6317 32.2276C85.8839 32.2276 85.2519 32.467 84.7359 32.9457C84.2199 33.4245 83.9247 34.0389 83.8502 34.789H89.3638C89.3338 34.4271 89.2386 34.0736 89.0828 33.7456C88.9383 33.4383 88.7373 33.1611 88.4903 32.9284C88.2465 32.7016 87.9604 32.5253 87.6485 32.4095C87.3233 32.2877 86.9788 32.2261 86.6317 32.2276Z" fill="#F50537"/>
<path d="M93.7032 38.6615C92.9377 38.6615 92.3243 38.4784 91.863 38.112C91.4017 37.7456 91.1468 37.2457 91.0981 36.6124H91.6968C91.7467 37.0792 91.9507 37.4417 92.3086 37.6998C92.6666 37.9579 93.1384 38.0869 93.7241 38.0869C94.3105 38.0869 94.7845 37.962 95.1462 37.7121C95.5079 37.4621 95.6888 37.1249 95.6888 36.7003C95.6925 36.5155 95.6497 36.3329 95.5643 36.1691C95.4927 36.0292 95.3929 35.9057 95.2712 35.8064C95.1244 35.7012 94.9624 35.619 94.7908 35.5628C94.6161 35.4977 94.4368 35.4456 94.2544 35.407C94.1052 35.3781 93.8973 35.3384 93.6308 35.288C93.4065 35.2548 93.2356 35.2257 93.1209 35.2007C93.0062 35.1757 92.8486 35.1384 92.6533 35.0883C92.4943 35.0514 92.3391 34.9995 92.1898 34.9331C92.0602 34.8689 91.9352 34.7958 91.8156 34.7145C91.6916 34.6357 91.5838 34.5339 91.4979 34.4147C91.416 34.2914 91.3529 34.1566 91.3108 34.0147C91.2591 33.8446 91.2338 33.6675 91.2358 33.4897C91.2358 32.9401 91.4603 32.4946 91.9094 32.1531C92.3584 31.8115 92.9447 31.6413 93.668 31.6423C94.1504 31.6423 94.5753 31.7215 94.9428 31.8798C95.2842 32.0185 95.5786 32.2528 95.7907 32.5545C95.996 32.8625 96.1126 33.2213 96.1278 33.5913H95.5414C95.5278 33.3865 95.4726 33.1867 95.3792 33.004C95.2895 32.8315 95.1614 32.682 95.005 32.5668C94.8291 32.4418 94.6327 32.3488 94.4247 32.292C94.1758 32.2221 93.9183 32.1877 93.6599 32.1898C93.1109 32.1898 92.6702 32.3065 92.3377 32.5397C92.0053 32.7729 91.8389 33.0811 91.8385 33.4642C91.8365 33.5857 91.8555 33.7066 91.8946 33.8217C91.9277 33.9171 91.9739 34.0076 92.0318 34.0903C92.0978 34.1747 92.1806 34.2442 92.275 34.2946C92.3687 34.3504 92.4668 34.3986 92.5682 34.4387C92.6909 34.4825 92.8159 34.52 92.9424 34.551C93.1046 34.5929 93.2356 34.622 93.3356 34.6384L93.7721 34.7134C93.9964 34.7466 94.1693 34.7758 94.2896 34.8008C94.4099 34.8258 94.5746 34.8656 94.7827 34.9193C95.1015 34.989 95.4028 35.123 95.6684 35.3131C95.8035 35.3993 95.9201 35.5118 96.011 35.644C96.0983 35.7839 96.1656 35.9354 96.2109 36.094C96.2668 36.2868 96.2942 36.4867 96.292 36.6875C96.292 37.2789 96.0571 37.7556 95.5873 38.1176C95.1175 38.4795 94.4895 38.6609 93.7032 38.6615Z" fill="#F50537"/>
<path d="M100.042 38.6626C99.2772 38.6626 98.664 38.4794 98.2023 38.113C97.7407 37.7466 97.4858 37.2468 97.4375 36.6134H98.0366C98.0863 37.0803 98.2902 37.4427 98.6485 37.7008C99.0068 37.9589 99.4788 38.088 100.064 38.088C100.651 38.088 101.125 37.963 101.487 37.7131C101.848 37.4632 102.029 37.1259 102.029 36.7013C102.033 36.5165 101.99 36.3338 101.904 36.1701C101.833 36.0301 101.733 35.9066 101.611 35.8075C101.464 35.7023 101.303 35.6202 101.131 35.5638C100.956 35.4988 100.777 35.4467 100.595 35.4081C100.445 35.3791 100.237 35.3395 99.9707 35.2891C99.7463 35.255 99.5763 35.2259 99.4608 35.2017C99.3452 35.1775 99.1893 35.1401 98.9932 35.0894C98.8356 35.0519 98.682 34.9996 98.5343 34.9331C98.4046 34.869 98.2796 34.7959 98.16 34.7145C98.036 34.6355 97.9281 34.5338 97.8418 34.4147C97.7567 34.292 97.6905 34.1572 97.6455 34.0147C97.5939 33.8446 97.5686 33.6675 97.5706 33.4897C97.5706 32.9401 97.7951 32.4946 98.2442 32.1531C98.6932 31.8115 99.2796 31.6413 100.003 31.6423C100.485 31.6423 100.91 31.7215 101.278 31.8798C101.62 32.0185 101.914 32.2527 102.127 32.5545C102.331 32.8627 102.448 33.2214 102.463 33.5913H101.877C101.863 33.3865 101.808 33.1866 101.715 33.004C101.625 32.8314 101.497 32.6818 101.34 32.5668C101.165 32.4419 100.968 32.3489 100.76 32.292C100.512 32.2221 100.254 32.1878 99.9957 32.1898C99.447 32.1898 99.0063 32.3065 98.6735 32.5397C98.3407 32.7729 98.1745 33.0811 98.1748 33.4642C98.1725 33.5857 98.1915 33.7067 98.2309 33.8217C98.2638 33.9172 98.31 34.0077 98.3681 34.0903C98.434 34.1747 98.5169 34.2442 98.6113 34.2946C98.705 34.3504 98.8031 34.3986 98.9045 34.4387C99.0272 34.4826 99.1521 34.5201 99.2787 34.551C99.4409 34.5929 99.5718 34.622 99.6714 34.6384L100.108 34.7134C100.333 34.7475 100.505 34.7766 100.626 34.8008C100.746 34.8258 100.91 34.8657 101.118 34.9193C101.285 34.9598 101.448 35.0141 101.605 35.0817C101.743 35.1489 101.877 35.2263 102.004 35.3131C102.139 35.3993 102.256 35.5118 102.347 35.644C102.434 35.784 102.502 35.9354 102.547 36.094C102.603 36.2868 102.63 36.4868 102.628 36.6875C102.628 37.2789 102.393 37.7556 101.923 38.1176C101.453 38.4795 100.826 38.6612 100.042 38.6626Z" fill="#F50537"/>
</g>
<defs>
<linearGradient id="paint0_linear_196_1382" x1="21.3529" y1="-7.69091" x2="24.9559" y2="18.4492" gradientUnits="userSpaceOnUse">
<stop stop-color="white"/>
<stop offset="0.1" stop-color="#FDC2CE"/>
<stop offset="0.21" stop-color="#FA89A1"/>
<stop offset="0.32" stop-color="#F85A7B"/>
<stop offset="0.42" stop-color="#F7355D"/>
<stop offset="0.52" stop-color="#F61B48"/>
<stop offset="0.6" stop-color="#F50B3B"/>
<stop offset="0.67" stop-color="#F50537"/>
</linearGradient>
<clipPath id="clip0_196_1382">
<rect width="135" height="53.1818" fill="white"/>
</clipPath>
</defs>
</svg>
