<svg width="24" height="20" viewBox="0 0 24 20" fill="none" xmlns="http://www.w3.org/2000/svg">
<path d="M20.9946 5.53458C21.0091 5.73853 21.0091 5.94253 21.0091 6.14648C21.0091 12.3672 16.2744 19.535 7.62057 19.535C4.9545 19.535 2.47785 18.7629 0.394531 17.4226C0.773329 17.4663 1.13751 17.4809 1.53088 17.4809C3.73071 17.4809 5.75578 16.7379 7.3729 15.4704C5.30415 15.4267 3.57048 14.0718 2.97316 12.207C3.26455 12.2507 3.5559 12.2798 3.86188 12.2798C4.28435 12.2798 4.70687 12.2215 5.1002 12.1196C2.94405 11.6825 1.32688 9.78862 1.32688 7.50135V7.4431C1.95331 7.79275 2.6818 8.01127 3.45388 8.04038C2.18641 7.19538 1.35603 5.7531 1.35603 4.12141C1.35603 3.24731 1.58909 2.44603 1.99703 1.74673C4.31346 4.60218 7.79537 6.46693 11.6997 6.67093C11.6269 6.32128 11.5832 5.9571 11.5832 5.59288C11.5832 2.99963 13.6811 0.887207 16.2888 0.887207C17.6437 0.887207 18.8675 1.45538 19.727 2.37321C20.7905 2.16925 21.8103 1.77588 22.7136 1.23686C22.3639 2.32953 21.6209 3.24735 20.6449 3.83006C21.5918 3.72812 22.5097 3.46583 23.3546 3.10165C22.7137 4.03401 21.9124 4.86438 20.9946 5.53458Z" fill="white"/>
</svg>
